<?xml version="1.0" encoding="utf-8"?><svg viewBox="0 0 179 50" xmlns="http://www.w3.org/2000/svg" xmlns:xlink="http://www.w3.org/1999/xlink"><style>:root>svg{display:none}:root>svg:target{display:block}</style><svg fill="none" viewBox="0 0 46 34" id="applepay" xmlns="http://www.w3.org/2000/svg"><path fill-rule="evenodd" clip-rule="evenodd" d="M23.23 13.033h-3.297v8.418h1.311V18.58h1.946c1.654 0 2.82-1.137 2.82-2.78 0-1.642-1.155-2.766-2.78-2.766Zm-.345 4.447h-1.64v-3.347h1.64c1.139 0 1.788.62 1.788 1.68 0 1.058-.663 1.668-1.788 1.668v-.001ZM29.107 15.033c-1.417 0-2.476.82-2.514 1.946h1.177c.106-.543.609-.9 1.297-.9.834 0 1.324.397 1.324 1.124v.49l-1.709.092c-1.56.108-2.422.742-2.422 1.854 0 1.126.874 1.88 2.159 1.866.86 0 1.654-.437 1.998-1.125h.027v1.06h1.204v-4.343c0-1.244-.992-2.064-2.54-2.064Zm1.284 4.037c0 .834-.715 1.43-1.641 1.442-.728 0-1.205-.344-1.205-.887 0-.569.45-.886 1.31-.94l1.536-.105v.49ZM35.381 20.274h-.026l-1.628-5.175h-1.365l2.305 6.354-.092.33c-.213.674-.557.927-1.153.927-.106 0-.304 0-.397-.026v1.032c.107.014.41.04.503.026 1.297 0 1.893-.49 2.436-2.012l2.37-6.631H37.01l-1.629 5.175Z" fill="#303C42"/><path fill-rule="evenodd" clip-rule="evenodd" d="M42.933 0H3.067A3.07 3.07 0 0 0 0 3.067v27.6a3.07 3.07 0 0 0 3.067 3.066h39.866A3.07 3.07 0 0 0 46 30.667v-27.6A3.07 3.07 0 0 0 42.933 0Zm1.534 30.667c0 .845-.689 1.533-1.534 1.533H3.067a1.536 1.536 0 0 1-1.534-1.533v-27.6c0-.845.689-1.534 1.534-1.534h39.866c.845 0 1.534.689 1.534 1.534v27.6Z" fill="#303C42"/><path fill-rule="evenodd" clip-rule="evenodd" d="M16.008 15.717c-.015-1.55 1.268-2.299 1.326-2.334-.72-1.057-1.843-1.2-2.243-1.218-.955-.095-1.864.563-2.349.563-.483 0-1.233-.547-2.024-.532-1.043.015-2 .604-2.538 1.537-1.08 1.878-.276 4.658.778 6.18.515.744 1.13 1.583 1.937 1.552.777-.03 1.07-.501 2.008-.501.94 0 1.204.501 2.026.486.835-.016 1.366-.76 1.878-1.506.59-.865.834-1.702.848-1.746-.018-.007-1.63-.625-1.647-2.481ZM15.103 9.2c-.618.025-1.364.413-1.808.93-.397.46-.745 1.194-.65 1.898.689.053 1.39-.35 1.82-.868.43-.52.716-1.242.638-1.96Z" fill="#303C42"/></svg><svg fill="none" viewBox="0 0 15 8" id="arrow-down" xmlns="http://www.w3.org/2000/svg"><path d="m.93 1 6.52 6 6.52-6" stroke="#000"/></svg><svg fill="none" viewBox="0 0 7 12" id="arrow-left" xmlns="http://www.w3.org/2000/svg"><path d="M6.044 12 0 6l6.044-6 .876.876L1.752 6l5.168 5.124-.876.876Z" fill="#000"/></svg><svg fill="none" viewBox="0 0 7 12" id="arrow-right" xmlns="http://www.w3.org/2000/svg"><path d="M.956 12 7 6 .956 0 .08.876 5.248 6 .08 11.124.956 12Z" fill="#000"/></svg><svg fill="none" viewBox="0 0 25 22" id="cart" xmlns="http://www.w3.org/2000/svg"><path d="M17.085 5.592h4.658a2 2 0 0 1 1.99 2.204l-1.17 11.408A2 2 0 0 1 20.573 21H4.788a2 2 0 0 1-1.991-1.812L1.716 7.78a2 2 0 0 1 1.992-2.188H8.26m8.824 0V3a2 2 0 0 0-2-2H10.26a2 2 0 0 0-2 2v2.592m8.824 0H8.26" stroke="#000" stroke-width="1.5"/></svg><svg fill="none" viewBox="0 0 12 12" id="close" xmlns="http://www.w3.org/2000/svg"><path d="m1 1.5 9.55 9.55M1 11.05l9.55-9.55" stroke="#010101" stroke-width="1.5" stroke-miterlimit="10"/></svg><svg fill="none" viewBox="0 0 9 17" id="facebook" xmlns="http://www.w3.org/2000/svg"><path d="M7.233 2.822h1.598V.119C8.058.039 7.281-.001 6.502 0 4.19 0 2.61 1.411 2.61 3.995v2.227H0v3.026h2.61V17h3.127V9.248h2.601l.391-3.026H5.737v-1.93c0-.892.238-1.47 1.496-1.47Z" fill="#000"/></svg><svg fill="none" viewBox="0 0 56 39" id="googlepay" xmlns="http://www.w3.org/2000/svg"><g filter="url(#ha)"><path fill="#fff" d="M5 4.867h46v28H5z"/><path d="M27.028 18.353v3.732h-1.185v-9.218h3.14a2.834 2.834 0 0 1 2.035.798c.551.496.86 1.206.85 1.946a2.55 2.55 0 0 1-.85 1.957c-.55.524-1.229.786-2.034.785h-1.956Zm0-4.351v3.219h1.985c.441.013.865-.16 1.172-.477a1.57 1.57 0 0 0 .031-2.221l-.03-.031a1.547 1.547 0 0 0-1.173-.49h-1.985Zm7.569 1.57c.876 0 1.566.234 2.072.702.507.468.76 1.11.76 1.924v3.888h-1.132v-.876h-.052c-.49.72-1.143 1.082-1.957 1.082-.695 0-1.276-.206-1.743-.619a1.976 1.976 0 0 1-.702-1.544c0-.653.247-1.172.74-1.558.494-.385 1.151-.579 1.976-.579.703 0 1.283.128 1.738.386v-.272a1.343 1.343 0 0 0-.49-1.047 1.675 1.675 0 0 0-1.144-.432c-.66 0-1.184.28-1.57.837l-1.042-.657c.572-.823 1.421-1.235 2.546-1.235Zm-1.533 4.583a.949.949 0 0 0 .392.772c.262.206.587.316.92.308.5-.001.979-.2 1.332-.553.392-.37.589-.802.589-1.301-.37-.294-.884-.442-1.545-.442-.48 0-.883.116-1.204.348-.322.238-.484.524-.484.868Zm10.867-4.377-3.954 9.089h-1.222l1.467-3.18-2.602-5.91h1.288l1.88 4.532h.026l1.828-4.531h1.289Z" fill="#5F6368"/><path d="M23.381 18.615c0-.361-.03-.721-.091-1.077h-4.995v2.04h2.86a2.449 2.449 0 0 1-1.057 1.608v1.325h1.707c1-.92 1.576-2.283 1.576-3.896Z" fill="#4285F4"/><path d="M18.295 23.791c1.43 0 2.633-.47 3.511-1.279l-1.708-1.325c-.475.323-1.087.507-1.803.507-1.381 0-2.553-.932-2.973-2.186h-1.758v1.365a5.293 5.293 0 0 0 4.731 2.918Z" fill="#34A853"/><path d="M15.323 19.508a3.168 3.168 0 0 1 0-2.028v-1.363h-1.76a5.3 5.3 0 0 0 0 4.757l1.76-1.366Z" fill="#FBBC04"/><path d="M18.295 15.296a2.879 2.879 0 0 1 2.032.794l1.512-1.51a5.1 5.1 0 0 0-3.544-1.381 5.295 5.295 0 0 0-4.731 2.918l1.76 1.365c.418-1.255 1.59-2.186 2.971-2.186Z" fill="#EA4335"/></g><defs><filter id="ha" x="0" y=".867" width="56" height="38" filterUnits="userSpaceOnUse" color-interpolation-filters="sRGB"><feFlood flood-opacity="0" result="BackgroundImageFix"/><feColorMatrix in="SourceAlpha" values="0 0 0 0 0 0 0 0 0 0 0 0 0 0 0 0 0 0 127 0" result="hardAlpha"/><feOffset dy="1"/><feGaussianBlur stdDeviation="2.5"/><feComposite in2="hardAlpha" operator="out"/><feColorMatrix values="0 0 0 0 0 0 0 0 0 0 0 0 0 0 0 0 0 0 0.15 0"/><feBlend in2="BackgroundImageFix" result="effect1_dropShadow_102_680"/><feBlend in="SourceGraphic" in2="effect1_dropShadow_102_680" result="shape"/></filter></defs></svg><svg fill="none" viewBox="0 0 23 20" id="heart" xmlns="http://www.w3.org/2000/svg"><path d="M16.496 0a6.492 6.492 0 0 0-4.92 2.289A6.492 6.492 0 0 0 6.656 0C3.266 0 .642 2.616.642 5.995c0 4.141 3.718 7.466 9.349 12.588L11.576 20l1.586-1.417c5.63-5.122 9.348-8.447 9.348-12.588C22.51 2.615 19.886 0 16.496 0Zm-4.245 17.149-.222.201-.453.405-.453-.404-.221-.202c-2.65-2.41-4.94-4.492-6.453-6.354-1.47-1.808-2.124-3.288-2.124-4.8 0-1.191.442-2.289 1.246-3.09.801-.798 1.897-1.238 3.085-1.238 1.374 0 2.732.633 3.633 1.695l1.287 1.516 1.287-1.516a4.829 4.829 0 0 1 3.633-1.695c1.188 0 2.284.44 3.085 1.238.804.801 1.247 1.899 1.247 3.09 0 1.512-.656 2.992-2.125 4.8-1.513 1.862-3.802 3.943-6.452 6.354Z" fill="#000"/></svg><svg fill="none" viewBox="0 0 11 14" id="icon-shevron-right" xmlns="http://www.w3.org/2000/svg"><path d="M1 .5 10 7l-9 6.5" stroke="#000" stroke-width=".7"/></svg><svg fill="none" viewBox="0 0 18 17" id="instagram" xmlns="http://www.w3.org/2000/svg"><path d="M9.332 6.392a2.108 2.108 0 1 0 0 4.216 2.108 2.108 0 0 0 0-4.216Zm8.44-2.083a5.548 5.548 0 0 0-.357-1.92A3.399 3.399 0 0 0 15.443.417a5.55 5.55 0 0 0-1.921-.358C12.425 0 12.102 0 9.332 0 6.56 0 6.238 0 5.14.06A5.55 5.55 0 0 0 3.22.415a3.4 3.4 0 0 0-1.972 1.972A5.55 5.55 0 0 0 .891 4.31C.831 5.406.831 5.73.831 8.5s0 3.094.06 4.19c.01.66.13 1.312.357 1.93.17.447.434.853.774 1.19.338.342.747.606 1.198.774a5.55 5.55 0 0 0 1.921.357C6.238 17 6.561 17 9.331 17c2.771 0 3.095 0 4.191-.06a5.55 5.55 0 0 0 1.921-.357c.451-.167.86-.431 1.199-.773.34-.337.603-.743.773-1.19.232-.617.352-1.27.357-1.93.06-1.096.06-1.419.06-4.19 0-2.771 0-3.094-.06-4.19Zm-2.159 6.8a4.868 4.868 0 0 1-.332 1.53 3.28 3.28 0 0 1-1.81 1.811 4.87 4.87 0 0 1-1.539.298H6.731a4.87 4.87 0 0 1-1.539-.298 2.983 2.983 0 0 1-1.113-.731 2.983 2.983 0 0 1-.697-1.08 4.667 4.667 0 0 1-.29-1.538V5.899a4.667 4.667 0 0 1 .29-1.538c.156-.422.406-.803.73-1.114a3.052 3.052 0 0 1 1.08-.697 4.87 4.87 0 0 1 1.539-.297H11.932a4.87 4.87 0 0 1 1.539.297c.422.157.802.407 1.114.731.307.305.545.673.696 1.08.182.493.283 1.012.298 1.538V8.5c0 1.751.06 1.93.034 2.601v.008Zm-1.36-6.324a2.023 2.023 0 0 0-1.198-1.198 3.4 3.4 0 0 0-1.173-.187h-5.1a3.4 3.4 0 0 0-1.173.221A2.023 2.023 0 0 0 4.41 4.777a3.63 3.63 0 0 0-.178 1.173v5.1c.008.4.083.797.22 1.173a2.023 2.023 0 0 0 1.199 1.198c.363.134.744.209 1.13.222h5.1a3.398 3.398 0 0 0 1.174-.222 2.024 2.024 0 0 0 1.198-1.198c.142-.375.217-.772.221-1.173v-5.1c0-.401-.075-.8-.221-1.173v.008Zm-4.921 6.962A3.238 3.238 0 0 1 6.093 8.5a3.247 3.247 0 1 1 3.239 3.247Zm3.4-5.856a.765.765 0 0 1 0-1.522.765.765 0 0 1 0 1.522Z" fill="#000"/></svg><svg fill="none" viewBox="0 0 26 37" id="location" xmlns="http://www.w3.org/2000/svg"><path d="m13 36.5-.8-.9C11.7 35.1 0 21.3 0 13 0 5.8 5.8 0 13 0s13 5.8 13 13c0 8.3-11.7 22.1-12.2 22.7l-.8.8ZM13 2C6.9 2 2 6.9 2 13c0 6.4 8.4 17.2 11 20.4 2.6-3.2 11-14 11-20.4 0-6.1-4.9-11-11-11Z" fill="#000"/><path d="M13 18c-2.8 0-5-2.2-5-5s2.2-5 5-5 5 2.2 5 5-2.2 5-5 5Zm0-8c-1.7 0-3 1.3-3 3s1.3 3 3 3 3-1.3 3-3-1.3-3-3-3Z" fill="#000"/></svg><svg fill="none" viewBox="0 0 179 50" id="logo" xmlns="http://www.w3.org/2000/svg"><path d="M15.777 20.945c-1.55 0-2.92-.205-4.11-.615-1.19-.41-2.12-1.08-2.79-2.01-.66-.93-.99-2.17-.99-3.72 0-1.44.235-2.64.705-3.6a4.646 4.646 0 0 1 2.145-2.145c.96-.48 2.155-.72 3.585-.72.6 0 1.095.07 1.485.21.4.13.72.25.96.36.11.05.205.095.285.135.09.03.16.045.21.045.16 0 .24-.1.24-.3 0-.09-.015-.255-.045-.495-.02-.25-.05-.54-.09-.87a48.4 48.4 0 0 0-.135-1.02c-.04-.36-.075-.7-.105-1.02-.02-.33-.03-.605-.03-.825 0-2.47 1.31-3.705 3.93-3.705.89 0 1.72.145 2.49.435.77.28 1.4.74 1.89 1.38.2.27.375.56.525.87.16.31.295.64.405.99.11.34.2.705.27 1.095s.12.8.15 1.23c.03.43.045.88.045 1.35 0 2.99-.34 5.44-1.02 7.35-.67 1.91-1.81 3.32-3.42 4.23-1.6.91-3.795 1.365-6.585 1.365Zm.255-4.59c.42 0 .785-.08 1.095-.24.32-.16.565-.375.735-.645.18-.27.27-.56.27-.87 0-.32-.06-.59-.18-.81a1.237 1.237 0 0 0-1.14-.69c-.36 0-.705.095-1.035.285-.33.19-.605.445-.825.765-.21.31-.315.645-.315 1.005 0 .25.06.465.18.645s.285.32.495.42c.22.09.46.135.72.135Zm20.344 5.835c-.88 0-1.76-.08-2.64-.24a7.977 7.977 0 0 1-2.4-.795 4.65 4.65 0 0 1-1.74-1.515c-.43-.64-.645-1.44-.645-2.4 0-.87.225-1.6.675-2.19.45-.6 1.06-1.075 1.83-1.425.77-.36 1.64-.62 2.61-.78.98-.16 1.995-.24 3.045-.24.22 0 .435.01.645.03.21.01.4.025.57.045.18.01.315.015.405.015.2 0 .34-.035.42-.105.08-.08.12-.2.12-.36 0-.06-.01-.11-.03-.15a.33.33 0 0 0-.06-.135.345.345 0 0 0-.12-.12c-.13-.1-.32-.175-.57-.225-.24-.06-.51-.09-.81-.09-.42 0-.89.045-1.41.135l-1.665.255c-.58.09-1.19.135-1.83.135-1.18 0-2.105-.195-2.775-.585-.66-.39-.99-.995-.99-1.815 0-.75.23-1.39.69-1.92.47-.53 1.09-.96 1.86-1.29.78-.33 1.64-.57 2.58-.72.94-.15 1.88-.225 2.82-.225 2 0 3.695.19 5.085.57 1.4.37 2.465 1.035 3.195 1.995.74.95 1.11 2.3 1.11 4.05 0 .31-.01.58-.03.81-.02.23-.045.435-.075.615s-.055.345-.075.495c-.02.14-.03.285-.03.435 0 .3.105.605.315.915.22.3.47.625.75.975.29.34.54.715.75 1.125.22.41.33.875.33 1.395 0 .77-.245 1.34-.735 1.71-.49.38-1.07.57-1.74.57-.48 0-.865-.11-1.155-.33a4.47 4.47 0 0 1-.705-.645c-.19-.21-.39-.315-.6-.315-.16 0-.35.055-.57.165-.21.12-.45.265-.72.435-.33.21-.75.45-1.26.72-.51.28-1.13.52-1.86.72-.72.2-1.575.3-2.565.3Zm.57-4.62c.21 0 .42-.025.63-.075.22-.05.425-.12.615-.21.19-.1.34-.22.45-.36.12-.14.18-.3.18-.48 0-.19-.055-.335-.165-.435a.967.967 0 0 0-.42-.24 1.8 1.8 0 0 0-.51-.075c-.28 0-.57.035-.87.105-.3.06-.555.17-.765.33-.2.16-.3.385-.3.675 0 .19.06.34.18.45.12.11.265.19.435.24.18.05.36.075.54.075Zm18.563 3.135c-.62 0-1.17-.07-1.65-.21a4.334 4.334 0 0 1-1.245-.585 5.11 5.11 0 0 1-.945-.915c-.29-.37-.545-.78-.765-1.23a9.728 9.728 0 0 1-.555-1.455c-.14-.52-.25-1.06-.33-1.62-.07-.56-.105-1.125-.105-1.695 0-1.7.405-3.15 1.215-4.35.81-1.21 1.92-2.135 3.33-2.775 1.42-.65 3.035-.975 4.845-.975.93 0 1.845.08 2.745.24.91.16 1.73.41 2.46.75s1.315.78 1.755 1.32c.44.53.66 1.17.66 1.92 0 .74-.15 1.315-.45 1.725-.29.41-.67.695-1.14.855-.46.15-.94.225-1.44.225-.69 0-1.285-.065-1.785-.195s-1.04-.195-1.62-.195c-.43 0-.805.115-1.125.345-.32.22-.48.635-.48 1.245 0 .26.01.52.03.78.03.25.065.5.105.75l.12.735c.04.25.07.495.09.735.03.24.045.485.045.735 0 1.27-.3 2.23-.9 2.88-.59.64-1.545.96-2.865.96Zm16.796-.03c-1.12 0-1.985-.19-2.595-.57-.6-.38-1.015-.93-1.245-1.65-.23-.72-.345-1.585-.345-2.595 0-.3.005-.595.015-.885l.06-.84c.03-.27.065-.53.105-.78.05-.26.1-.51.15-.75.06-.24.125-.47.195-.69.07-.23.15-.445.24-.645.45-1.04 1.115-1.84 1.995-2.4.88-.56 2.015-.84 3.405-.84 1.29 0 2.24.455 2.85 1.365.62.9.93 2.11.93 3.63 0 .4-.015.79-.045 1.17a11.147 11.147 0 0 1-.3 2.1c-.07.32-.16.625-.27.915-.11.28-.23.55-.36.81-.13.26-.28.5-.45.72a4.498 4.498 0 0 1-1.77 1.425c-.71.34-1.565.51-2.565.51Zm1.455-13.68c-1.45 0-2.505-.235-3.165-.705-.66-.47-.99-1.015-.99-1.635 0-.81.29-1.5.87-2.07.58-.58 1.305-1.02 2.175-1.32C73.53.955 74.42.8 75.32.8c.66 0 1.27.105 1.83.315.57.2 1.03.52 1.38.96.35.43.525.995.525 1.695 0 .8-.245 1.435-.735 1.905s-1.14.81-1.95 1.02c-.8.2-1.67.3-2.61.3Zm14.998 13.65c-.9 0-1.705-.03-2.415-.09-.7-.05-1.33-.13-1.89-.24-.55-.11-1.055-.25-1.515-.42-.7-.26-1.28-.575-1.74-.945-.45-.37-.675-.93-.675-1.68 0-.82.23-1.475.69-1.965.46-.5 1.14-.75 2.04-.75.46 0 .905.05 1.335.15.43.09.89.185 1.38.285.49.09 1.045.135 1.665.135.34 0 .625-.01.855-.03.23-.02.405-.065.525-.135a.33.33 0 0 0 .18-.3.39.39 0 0 0-.18-.345c-.11-.09-.345-.175-.705-.255a26.27 26.27 0 0 0-1.635-.285c-1.13-.18-2.105-.46-2.925-.84-.82-.38-1.455-.88-1.905-1.5-.44-.62-.66-1.38-.66-2.28 0-.84.245-1.55.735-2.13.49-.58 1.155-1.045 1.995-1.395.84-.36 1.78-.62 2.82-.78 1.05-.17 2.13-.255 3.24-.255.78 0 1.57.05 2.37.15.8.09 1.535.24 2.205.45.68.21 1.225.49 1.635.84.41.34.615.765.615 1.275 0 .68-.16 1.225-.48 1.635-.31.41-.705.705-1.185.885-.47.17-.95.255-1.44.255a8.41 8.41 0 0 1-1.71-.165c-.52-.11-.91-.165-1.17-.165-.16 0-.295.01-.405.03a.43.43 0 0 0-.225.105c-.04.04-.06.1-.06.18 0 .13.16.235.48.315.32.07.905.175 1.755.315a8.09 8.09 0 0 1 2.385.735c.74.35 1.335.845 1.785 1.485.45.64.675 1.455.675 2.445 0 .87-.2 1.635-.6 2.295-.4.65-.97 1.2-1.71 1.65-.74.44-1.63.77-2.67.99-1.03.23-2.185.345-3.465.345Zm17.871 0c-.9 0-1.705-.03-2.415-.09-.7-.05-1.33-.13-1.89-.24-.55-.11-1.055-.25-1.515-.42-.7-.26-1.28-.575-1.74-.945-.45-.37-.675-.93-.675-1.68 0-.82.23-1.475.69-1.965.46-.5 1.14-.75 2.04-.75.46 0 .905.05 1.335.15.43.09.89.185 1.38.285.49.09 1.045.135 1.665.135.34 0 .625-.01.855-.03.23-.02.405-.065.525-.135a.33.33 0 0 0 .18-.3.39.39 0 0 0-.18-.345c-.11-.09-.345-.175-.705-.255a26.27 26.27 0 0 0-1.635-.285c-1.13-.18-2.105-.46-2.925-.84-.82-.38-1.455-.88-1.905-1.5-.44-.62-.66-1.38-.66-2.28 0-.84.245-1.55.735-2.13.49-.58 1.155-1.045 1.995-1.395.84-.36 1.78-.62 2.82-.78 1.05-.17 2.13-.255 3.24-.255.78 0 1.57.05 2.37.15.8.09 1.535.24 2.205.45.68.21 1.225.49 1.635.84.41.34.615.765.615 1.275 0 .68-.16 1.225-.48 1.635-.31.41-.705.705-1.185.885-.47.17-.95.255-1.44.255a8.41 8.41 0 0 1-1.71-.165c-.52-.11-.91-.165-1.17-.165-.16 0-.295.01-.405.03a.43.43 0 0 0-.225.105c-.04.04-.06.1-.06.18 0 .13.16.235.48.315.32.07.905.175 1.755.315a8.09 8.09 0 0 1 2.385.735c.74.35 1.335.845 1.785 1.485.45.64.675 1.455.675 2.445 0 .87-.2 1.635-.6 2.295-.4.65-.97 1.2-1.71 1.65-.74.44-1.63.77-2.67.99-1.03.23-2.185.345-3.465.345Zm13.986.03c-1.12 0-1.985-.19-2.595-.57-.6-.38-1.015-.93-1.245-1.65-.23-.72-.345-1.585-.345-2.595 0-.3.005-.595.015-.885l.06-.84c.03-.27.065-.53.105-.78.05-.26.1-.51.15-.75.06-.24.125-.47.195-.69.07-.23.15-.445.24-.645.45-1.04 1.115-1.84 1.995-2.4.88-.56 2.015-.84 3.405-.84 1.29 0 2.24.455 2.85 1.365.62.9.93 2.11.93 3.63 0 .4-.015.79-.045 1.17a11.147 11.147 0 0 1-.3 2.1c-.07.32-.16.625-.27.915-.11.28-.23.55-.36.81-.13.26-.28.5-.45.72a4.498 4.498 0 0 1-1.77 1.425c-.71.34-1.565.51-2.565.51Zm1.455-13.68c-1.45 0-2.505-.235-3.165-.705-.66-.47-.99-1.015-.99-1.635 0-.81.29-1.5.87-2.07.58-.58 1.305-1.02 2.175-1.32.88-.31 1.77-.465 2.67-.465.66 0 1.27.105 1.83.315.57.2 1.03.52 1.38.96.35.43.525.995.525 1.695 0 .8-.245 1.435-.735 1.905s-1.14.81-1.95 1.02c-.8.2-1.67.3-2.61.3Zm10.274 13.53c-.87 0-1.56-.21-2.07-.63-.5-.43-.86-1.005-1.08-1.725-.21-.73-.315-1.545-.315-2.445 0-.32.01-.655.03-1.005.03-.35.075-.7.135-1.05.06-.36.135-.715.225-1.065.09-.36.2-.71.33-1.05.14-.35.295-.685.465-1.005.77-1.43 1.68-2.475 2.73-3.135 1.06-.67 2.305-1.005 3.735-1.005.88 0 1.605.14 2.175.42.57.28 1.025.635 1.365 1.065.35.43.615.875.795 1.335.17.42.365.785.585 1.095.23.3.515.45.855.45.37 0 .67-.08.9-.24.23-.16.485-.495.765-1.005.25-.46.575-.9.975-1.32.41-.43.94-.78 1.59-1.05.66-.28 1.48-.42 2.46-.42 1.48 0 2.66.33 3.54.99.88.65 1.515 1.565 1.905 2.745.39 1.18.585 2.56.585 4.14 0 .39-.01.765-.03 1.125-.02.36-.05.705-.09 1.035-.04.32-.095.625-.165.915-.07.29-.155.56-.255.81-.28.67-.685 1.19-1.215 1.56-.52.38-1.225.57-2.115.57-.83 0-1.515-.175-2.055-.525a3.52 3.52 0 0 1-1.245-1.38c-.06-.12-.115-.24-.165-.36a6.01 6.01 0 0 1-.135-.39c-.04-.14-.08-.275-.12-.405l-.09-.42-.06-.45c-.05-.43-.12-.775-.21-1.035-.08-.26-.17-.445-.27-.555-.1-.12-.21-.18-.33-.18-.16 0-.315.105-.465.315-.15.2-.29.455-.42.765-.12.31-.235.625-.345.945-.31.87-.7 1.48-1.17 1.83-.46.34-1.165.51-2.115.51-.98 0-1.71-.225-2.19-.675a3.506 3.506 0 0 1-.975-1.575c-.14-.49-.265-.88-.375-1.17-.1-.3-.205-.515-.315-.645a.511.511 0 0 0-.405-.195c-.13 0-.275.055-.435.165-.16.11-.31.28-.45.51-.1.17-.2.36-.3.57-.1.21-.195.435-.285.675-.08.23-.15.47-.21.72-.25 1.07-.635 1.815-1.155 2.235-.52.41-1.36.615-2.52.615Zm34.263.405c-1.3 0-2.56-.14-3.78-.42-1.21-.27-2.3-.695-3.27-1.275a6.856 6.856 0 0 1-2.295-2.28c-.56-.93-.84-2.055-.84-3.375 0-1.45.265-2.74.795-3.87a8.352 8.352 0 0 1 2.22-2.865 9.748 9.748 0 0 1 3.3-1.785c1.25-.41 2.595-.615 4.035-.615 1.43 0 2.75.175 3.96.525 1.22.35 2.28.875 3.18 1.575.9.7 1.595 1.575 2.085 2.625.5 1.04.75 2.26.75 3.66a6.38 6.38 0 0 1-.855 3.24c-.57.98-1.34 1.835-2.31 2.565a11.28 11.28 0 0 1-3.255 1.68c-1.2.41-2.44.615-3.72.615Zm-.42-7.14c.36 0 .67-.05.93-.15a1.853 1.853 0 0 0 1.065-1.065c.09-.23.135-.47.135-.72 0-.27-.06-.505-.18-.705-.12-.2-.28-.365-.48-.495-.2-.13-.425-.225-.675-.285-.24-.07-.49-.105-.75-.105-.37 0-.705.07-1.005.21-.3.14-.54.34-.72.6-.17.26-.255.57-.255.93 0 .34.085.645.255.915.17.27.4.485.69.645.3.15.63.225.99.225Z" fill="#000"/><g filter="url(#ma)"><circle cx="17.394" cy="14.435" r="4.328" transform="rotate(20 17.394 14.435)" fill="#E4E4E4"/><circle cx="15.578" cy="14.115" r="2.511" transform="rotate(20 15.578 14.115)" fill="#000"/><g filter="url(#mb)"><path d="M14.134 12.269c-.042.398.456.19.978.245.522.055.87.352.911-.047.042-.398-.347-.766-.868-.82-.522-.056-.98.223-1.021.622Z" fill="#fff"/></g></g><g filter="url(#mc)"><circle cx="8.547" cy="14.058" r="4.328" transform="rotate(20 8.547 14.058)" fill="#E4E4E4"/><circle cx="10.547" cy="13.876" r="2.511" transform="rotate(20 10.547 13.876)" fill="#000"/><g filter="url(#md)"><path d="M9.41 11.772c-.042.399.457.191.979.246.521.055.869.351.91-.047.043-.399-.346-.766-.868-.821-.522-.055-.979.224-1.02.622Z" fill="#fff"/></g></g><path d="M43.892 45.66c-1.127 0-2.02-.063-2.68-.19-.653-.127-1.14-.297-1.46-.51-.32-.213-.527-.457-.62-.73a2.583 2.583 0 0 1-.14-.84c0-.36.123-.66.37-.9.253-.233.59-.41 1.01-.53.427-.12.9-.18 1.42-.18.3 0 .617-.007.95-.02.333-.007.657-.023.97-.05.313-.02.597-.047.85-.08.26-.033.47-.073.63-.12a.575.575 0 0 0 .17-.08.565.565 0 0 0 .12-.09.28.28 0 0 0 .07-.11.21.21 0 0 0 .03-.11.268.268 0 0 0-.02-.1.182.182 0 0 0-.06-.08.149.149 0 0 0-.11-.04c-.08 0-.18.007-.3.02a33.323 33.323 0 0 1-.93.08c-.187.013-.383.02-.59.02-1.06 0-1.953-.16-2.68-.48a3.407 3.407 0 0 1-1.65-1.48c-.373-.667-.56-1.517-.56-2.55 0-.84.193-1.577.58-2.21a5.036 5.036 0 0 1 1.55-1.59 7.363 7.363 0 0 1 2.16-.96c.8-.213 1.613-.32 2.44-.32.9 0 1.737.133 2.51.4.78.26 1.463.647 2.05 1.16a5.234 5.234 0 0 1 1.37 1.92c.327.76.49 1.64.49 2.64 0 1.24-.163 2.36-.49 3.36-.327 1-.82 1.853-1.48 2.56-.653.707-1.48 1.247-2.48 1.62-.993.38-2.157.57-3.49.57Zm1.35-8.05c.233 0 .433-.027.6-.08.173-.053.313-.13.42-.23.107-.107.187-.233.24-.38.053-.147.08-.313.08-.5 0-.26-.05-.477-.15-.65a.894.894 0 0 0-.41-.39c-.18-.087-.4-.13-.66-.13-.193 0-.377.033-.55.1-.167.06-.317.147-.45.26-.133.113-.237.25-.31.41-.073.153-.11.323-.11.51s.05.363.15.53c.1.167.247.3.44.4.193.1.43.15.71.15Zm10.684 3.84c-.747 0-1.324-.127-1.73-.38a1.96 1.96 0 0 1-.83-1.1c-.154-.48-.23-1.057-.23-1.73 0-.2.003-.397.01-.59.013-.193.026-.38.04-.56.02-.18.043-.353.07-.52.033-.173.066-.34.1-.5.04-.16.083-.313.13-.46.046-.153.1-.297.16-.43.3-.693.743-1.227 1.33-1.6.586-.373 1.343-.56 2.27-.56.86 0 1.493.303 1.9.91.413.6.62 1.407.62 2.42 0 .267-.01.527-.03.78a7.43 7.43 0 0 1-.2 1.4 4.33 4.33 0 0 1-.18.61 6.584 6.584 0 0 1-.24.54 2.92 2.92 0 0 1-.3.48 3 3 0 0 1-1.18.95c-.474.227-1.044.34-1.71.34Zm.97-9.12c-.967 0-1.67-.157-2.11-.47-.44-.313-.66-.677-.66-1.09 0-.54.193-1 .58-1.38.386-.387.87-.68 1.45-.88a5.323 5.323 0 0 1 1.78-.31c.44 0 .846.07 1.22.21.38.133.686.347.92.64.233.287.35.663.35 1.13 0 .533-.164.957-.49 1.27-.327.313-.76.54-1.3.68-.534.133-1.114.2-1.74.2Zm10.659 9.18c-.72 0-1.274-.093-1.66-.28a1.75 1.75 0 0 1-.85-.86 5.048 5.048 0 0 1-.15-.38 7.05 7.05 0 0 1-.2-.95c-.02-.18-.04-.37-.06-.57-.02-.2-.037-.41-.05-.63-.02-.253-.094-.42-.22-.5a.731.731 0 0 0-.44-.13c-.087 0-.177.007-.27.02-.087.013-.177.03-.27.05-.107.027-.22.05-.34.07-.114.013-.227.02-.34.02-.274 0-.507-.063-.7-.19a1.31 1.31 0 0 1-.43-.52 1.728 1.728 0 0 1-.14-.7c0-.28.086-.55.26-.81.173-.267.463-.493.87-.68.14-.067.293-.13.46-.19.173-.067.36-.13.56-.19.2-.06.41-.11.63-.15.113-.02.183-.073.21-.16.026-.093.04-.21.04-.35 0-.147-.02-.317-.06-.51-.04-.193-.084-.407-.13-.64-.04-.24-.06-.497-.06-.77 0-.74.2-1.353.6-1.84.406-.487.946-.85 1.62-1.09.68-.24 1.43-.36 2.25-.36.36 0 .73.027 1.11.08.386.047.743.133 1.07.26.326.12.59.287.79.5.206.213.31.483.31.81 0 .2-.047.39-.14.57a1.1 1.1 0 0 1-.45.46c-.127.073-.28.133-.46.18a3.026 3.026 0 0 1-.61.09c-.374.013-.65.107-.83.28-.18.167-.27.357-.27.57v.13l.02.06c.033.12.08.213.14.28.06.06.15.09.27.09.086 0 .186-.013.3-.04.113-.033.243-.08.39-.14a.969.969 0 0 1 .21-.07c.073-.02.143-.033.21-.04.073-.013.14-.02.2-.02.353 0 .63.127.83.38.2.253.3.567.3.94 0 .353-.044.66-.13.92a1.786 1.786 0 0 1-.41.67c-.12.127-.264.24-.43.34-.167.1-.36.197-.58.29-.327.14-.557.343-.69.61a2.08 2.08 0 0 0-.19.92v.69c0 .22-.007.433-.02.64-.007.207-.02.407-.04.6a4.588 4.588 0 0 1-.07.54 2.814 2.814 0 0 1-.12.48c-.127.38-.334.677-.62.89-.28.22-.687.33-1.22.33Zm12.981-.24c-.707 0-1.36-.09-1.96-.27-.6-.18-1.083-.463-1.45-.85-.36-.393-.54-.903-.54-1.53 0-.133.004-.27.01-.41a131.727 131.727 0 0 1 .06-1.17c.007-.12.01-.227.01-.32 0-.293-.093-.48-.28-.56a2.028 2.028 0 0 0-.68-.17l-.41-.04a10.83 10.83 0 0 1-.4-.05c-.133-.02-.287-.04-.46-.06a1.46 1.46 0 0 1-.99-.56c-.246-.32-.37-.767-.37-1.34 0-.407.074-.717.22-.93.147-.213.34-.37.58-.47.247-.107.507-.193.78-.26l.72-.17.6-.16c.174-.047.323-.113.45-.2.133-.093.217-.247.25-.46.027-.153.053-.297.08-.43a5.25 5.25 0 0 1 .09-.38c.033-.12.07-.23.11-.33.167-.433.394-.737.68-.91.294-.173.743-.26 1.35-.26.474 0 .85.05 1.13.15.287.093.51.247.67.46.16.207.29.487.39.84a7.982 7.982 0 0 1 .29 1.26c.034.207.13.37.29.49.16.12.34.2.54.24.167.033.31.063.43.09l.37.06c.127.013.27.033.43.06.38.053.737.2 1.07.44.34.233.51.637.51 1.21 0 .493-.14.897-.42 1.21-.273.313-.61.493-1.01.54-.227.027-.46.053-.7.08-.233.027-.433.053-.6.08-.133.02-.273.073-.42.16-.147.08-.237.227-.27.44a2.09 2.09 0 0 1-.03.2l-.02.2c0 .067-.003.133-.01.2s-.01.133-.01.2v.21c0 .147.047.27.14.37.094.093.3.14.62.14.153 0 .293-.027.42-.08.133-.06.267-.117.4-.17.14-.053.297-.08.47-.08.334 0 .57.09.71.27.14.173.21.43.21.77 0 .38-.126.71-.38.99a2.91 2.91 0 0 1-.97.7c-.4.187-.837.327-1.31.42-.473.093-.936.14-1.39.14Zm18.116.16c-.6 0-1.136-.02-1.61-.06a10.44 10.44 0 0 1-1.26-.16 6.715 6.715 0 0 1-1.01-.28 4.137 4.137 0 0 1-1.16-.63c-.3-.247-.45-.62-.45-1.12 0-.547.154-.983.46-1.31.307-.333.76-.5 1.36-.5.307 0 .604.033.89.1l.92.19c.327.06.697.09 1.11.09.227 0 .417-.007.57-.02a.855.855 0 0 0 .35-.09.22.22 0 0 0 .12-.2.26.26 0 0 0-.12-.23c-.073-.06-.23-.117-.47-.17a17.51 17.51 0 0 0-1.09-.19c-.753-.12-1.403-.307-1.95-.56-.546-.253-.97-.587-1.27-1-.293-.413-.44-.92-.44-1.52 0-.56.164-1.033.49-1.42.327-.387.77-.697 1.33-.93a7.754 7.754 0 0 1 1.88-.52 13.5 13.5 0 0 1 2.16-.17c.52 0 1.047.033 1.58.1.534.06 1.024.16 1.47.3.454.14.817.327 1.09.56.274.227.41.51.41.85 0 .453-.106.817-.32 1.09-.206.273-.47.47-.79.59a2.8 2.8 0 0 1-.96.17c-.406 0-.786-.037-1.14-.11-.346-.073-.606-.11-.78-.11-.106 0-.196.007-.27.02a.287.287 0 0 0-.15.07c-.026.027-.04.067-.04.12 0 .087.107.157.32.21.214.047.604.117 1.17.21.574.087 1.104.25 1.59.49.494.233.89.563 1.19.99.3.427.45.97.45 1.63 0 .58-.133 1.09-.4 1.53-.266.433-.646.8-1.14 1.1-.493.293-1.086.513-1.78.66-.686.153-1.456.23-2.31.23Zm8.914.07c-.546 0-.97-.11-1.27-.33a2.182 2.182 0 0 1-.71-.88 2.925 2.925 0 0 1-.18-.54c-.053-.227-.103-.48-.15-.76-.04-.287-.073-.59-.1-.91a16.697 16.697 0 0 1 .04-2.49c.054-.507.13-1.003.23-1.49.107-.493.24-.97.4-1.43.16-.467.35-.91.57-1.33.22-.42.47-.813.75-1.18a4.557 4.557 0 0 1 1.41-1.23c.534-.3 1.14-.45 1.82-.45.694 0 1.25.197 1.67.59.42.393.63.92.63 1.58 0 .187-.02.377-.06.57-.04.187-.09.37-.15.55-.053.173-.106.34-.16.5-.053.16-.1.303-.14.43a.971.971 0 0 0-.06.29c0 .1.047.15.14.15.114 0 .234-.03.36-.09l.45-.21c.174-.08.39-.15.65-.21s.58-.09.96-.09c.76 0 1.397.123 1.91.37a3.13 3.13 0 0 1 1.23 1.02c.314.433.537.93.67 1.49.134.56.2 1.153.2 1.78 0 .287-.013.563-.04.83-.02.267-.053.517-.1.75-.04.227-.093.437-.16.63-.06.193-.13.363-.21.51a2.468 2.468 0 0 1-1.04 1.02c-.44.227-.993.34-1.66.34-.546 0-.973-.093-1.28-.28a1.86 1.86 0 0 1-.69-.82c-.06-.14-.113-.29-.16-.45a9.368 9.368 0 0 1-.13-.53l-.1-.6-.08-.66a4.23 4.23 0 0 0-.1-.55 1.122 1.122 0 0 0-.14-.37.545.545 0 0 0-.24-.22.801.801 0 0 0-.38-.08c-.126 0-.24.017-.34.05a.744.744 0 0 0-.27.16c-.08.073-.156.17-.23.29-.066.12-.13.267-.19.44-.093.267-.18.503-.26.71a12.32 12.32 0 0 1-.46 1.13c-.086.187-.186.393-.3.62a2.47 2.47 0 0 1-.99 1.02c-.426.24-.946.36-1.56.36Zm19.079.12c-.866 0-1.706-.093-2.52-.28a7.333 7.333 0 0 1-2.18-.85 4.57 4.57 0 0 1-1.53-1.52c-.373-.62-.56-1.37-.56-2.25 0-.967.177-1.827.53-2.58.36-.753.854-1.39 1.48-1.91a6.508 6.508 0 0 1 2.2-1.19 8.585 8.585 0 0 1 2.69-.41c.954 0 1.834.117 2.64.35.814.233 1.52.583 2.12 1.05.6.467 1.064 1.05 1.39 1.75.334.693.5 1.507.5 2.44 0 .78-.19 1.5-.57 2.16a5.753 5.753 0 0 1-1.54 1.71c-.64.48-1.363.853-2.17 1.12-.8.273-1.626.41-2.48.41Zm-.28-4.76c.24 0 .447-.033.62-.1a1.232 1.232 0 0 0 .71-.71c.06-.153.09-.313.09-.48 0-.18-.04-.337-.12-.47a1.002 1.002 0 0 0-.32-.33 1.424 1.424 0 0 0-.45-.19 1.772 1.772 0 0 0-.5-.07c-.246 0-.47.047-.67.14-.2.093-.36.227-.48.4a1.11 1.11 0 0 0-.17.62c0 .227.057.43.17.61.114.18.267.323.46.43.2.1.42.15.66.15Zm10.911 8.87c-.386 0-.736-.08-1.05-.24a2.551 2.551 0 0 1-.82-.67 4.092 4.092 0 0 1-.59-1 5.12 5.12 0 0 1-.21-.59c-.06-.2-.113-.41-.16-.63a11.25 11.25 0 0 1-.12-.68c-.026-.233-.05-.47-.07-.71a13.49 13.49 0 0 1-.02-.73c0-1.647.274-3.11.82-4.39.554-1.287 1.364-2.297 2.43-3.03 1.067-.74 2.374-1.11 3.92-1.11.86 0 1.67.113 2.43.34.76.22 1.43.553 2.01 1 .58.44 1.034.987 1.36 1.64.327.647.49 1.397.49 2.25 0 .747-.133 1.393-.4 1.94-.26.54-.63.987-1.11 1.34a4.765 4.765 0 0 1-1.67.78 7.86 7.86 0 0 1-2.08.26c-.386 0-.71-.03-.97-.09a6.368 6.368 0 0 1-.64-.16 1.332 1.332 0 0 0-.41-.08.421.421 0 0 0-.32.14 1.069 1.069 0 0 0-.21.36c-.053.14-.1.293-.14.46l-.1.54c-.026.193-.05.383-.07.57-.02.193-.036.38-.05.56-.066.767-.3 1.28-.7 1.54-.393.26-.91.39-1.55.39Zm4.14-7.92c.367 0 .677-.057.93-.17.26-.12.457-.27.59-.45.134-.18.2-.37.2-.57 0-.18-.06-.357-.18-.53a1.22 1.22 0 0 0-.52-.44c-.233-.12-.53-.18-.89-.18-.173 0-.34.023-.5.07-.16.04-.303.107-.43.2a.97.97 0 0 0-.29.34c-.073.14-.11.31-.11.51 0 .22.044.423.13.61.087.187.22.337.4.45.18.107.404.16.67.16Z" fill="#06F"/><defs><filter id="ma" x="9.065" y="10.106" width="16.659" height="16.659" filterUnits="userSpaceOnUse" color-interpolation-filters="sRGB"><feFlood flood-opacity="0" result="BackgroundImageFix"/><feColorMatrix in="SourceAlpha" values="0 0 0 0 0 0 0 0 0 0 0 0 0 0 0 0 0 0 127 0" result="hardAlpha"/><feOffset dy="4"/><feGaussianBlur stdDeviation="2"/><feComposite in2="hardAlpha" operator="out"/><feColorMatrix values="0 0 0 0 0 0 0 0 0 0 0 0 0 0 0 0 0 0 0.25 0"/><feBlend in2="BackgroundImageFix" result="effect1_dropShadow_35_10345"/><feBlend in="SourceGraphic" in2="effect1_dropShadow_35_10345" result="shape"/></filter><filter id="mb" x="13.132" y="10.639" width="3.895" height="3.033" filterUnits="userSpaceOnUse" color-interpolation-filters="sRGB"><feFlood flood-opacity="0" result="BackgroundImageFix"/><feBlend in="SourceGraphic" in2="BackgroundImageFix" result="shape"/><feGaussianBlur stdDeviation=".5" result="effect1_foregroundBlur_35_10345"/></filter><filter id="mc" x=".218" y="9.729" width="16.841" height="16.659" filterUnits="userSpaceOnUse" color-interpolation-filters="sRGB"><feFlood flood-opacity="0" result="BackgroundImageFix"/><feColorMatrix in="SourceAlpha" values="0 0 0 0 0 0 0 0 0 0 0 0 0 0 0 0 0 0 127 0" result="hardAlpha"/><feOffset dy="4"/><feGaussianBlur stdDeviation="2"/><feComposite in2="hardAlpha" operator="out"/><feColorMatrix values="0 0 0 0 0 0 0 0 0 0 0 0 0 0 0 0 0 0 0.25 0"/><feBlend in2="BackgroundImageFix" result="effect1_dropShadow_35_10345"/><feBlend in="SourceGraphic" in2="effect1_dropShadow_35_10345" result="shape"/></filter><filter id="md" x="8.408" y="10.143" width="3.895" height="3.033" filterUnits="userSpaceOnUse" color-interpolation-filters="sRGB"><feFlood flood-opacity="0" result="BackgroundImageFix"/><feBlend in="SourceGraphic" in2="BackgroundImageFix" result="shape"/><feGaussianBlur stdDeviation=".5" result="effect1_foregroundBlur_35_10345"/></filter></defs></svg><svg fill="none" viewBox="0 0 56 39" id="maestro" xmlns="http://www.w3.org/2000/svg"><g filter="url(#na)"><path fill="#fff" d="M5 4.867h46v28H5z"/><path d="M32.07 26.307h-8.544V10.953h8.545v15.354Z" fill="#EB001B" fill-opacity=".57"/><path d="M24.069 18.63a9.749 9.749 0 0 1 3.73-7.676A9.765 9.765 0 0 0 13.488 23.81a9.765 9.765 0 0 0 14.31 2.497 9.75 9.75 0 0 1-3.73-7.676Z" fill="#EB001B"/><path d="M43.597 18.63a9.764 9.764 0 0 1-15.799 7.677 9.747 9.747 0 0 0 3.73-7.676 9.747 9.747 0 0 0-3.73-7.677 9.765 9.765 0 0 1 15.799 7.677Z" fill="#479CFF"/></g><defs><filter id="na" x="0" y=".867" width="56" height="38" filterUnits="userSpaceOnUse" color-interpolation-filters="sRGB"><feFlood flood-opacity="0" result="BackgroundImageFix"/><feColorMatrix in="SourceAlpha" values="0 0 0 0 0 0 0 0 0 0 0 0 0 0 0 0 0 0 127 0" result="hardAlpha"/><feOffset dy="1"/><feGaussianBlur stdDeviation="2.5"/><feComposite in2="hardAlpha" operator="out"/><feColorMatrix values="0 0 0 0 0 0 0 0 0 0 0 0 0 0 0 0 0 0 0.15 0"/><feBlend in2="BackgroundImageFix" result="effect1_dropShadow_102_674"/><feBlend in="SourceGraphic" in2="effect1_dropShadow_102_674" result="shape"/></filter></defs></svg><svg fill="none" viewBox="0 0 56 39" id="mastercard" xmlns="http://www.w3.org/2000/svg"><g filter="url(#oa)"><path fill="#fff" d="M5 4.867h46v28H5z"/><path d="M32.07 26.307h-8.544V10.953h8.545v15.354Z" fill="#FF5F00"/><path d="M24.069 18.63a9.749 9.749 0 0 1 3.73-7.676A9.765 9.765 0 0 0 13.488 23.81a9.765 9.765 0 0 0 14.31 2.497 9.75 9.75 0 0 1-3.73-7.676Z" fill="#EB001B"/><path d="M43.597 18.63a9.764 9.764 0 0 1-15.799 7.677 9.747 9.747 0 0 0 3.73-7.676 9.747 9.747 0 0 0-3.73-7.677 9.765 9.765 0 0 1 15.799 7.677Z" fill="#F79E1B"/></g><defs><filter id="oa" x="0" y=".867" width="56" height="38" filterUnits="userSpaceOnUse" color-interpolation-filters="sRGB"><feFlood flood-opacity="0" result="BackgroundImageFix"/><feColorMatrix in="SourceAlpha" values="0 0 0 0 0 0 0 0 0 0 0 0 0 0 0 0 0 0 127 0" result="hardAlpha"/><feOffset dy="1"/><feGaussianBlur stdDeviation="2.5"/><feComposite in2="hardAlpha" operator="out"/><feColorMatrix values="0 0 0 0 0 0 0 0 0 0 0 0 0 0 0 0 0 0 0.15 0"/><feBlend in2="BackgroundImageFix" result="effect1_dropShadow_102_668"/><feBlend in="SourceGraphic" in2="effect1_dropShadow_102_668" result="shape"/></filter></defs></svg><svg fill="none" viewBox="0 0 56 39" id="paypal" xmlns="http://www.w3.org/2000/svg"><g filter="url(#pa)"><path fill="#fff" d="M5 4.867h46v28H5z"/><g clip-path="url(#pb)"><path d="M33.573 10.346c-.871-.999-2.445-1.427-4.46-1.427H23.27a.834.834 0 0 0-.827.71l-2.434 15.537a.504.504 0 0 0 .496.583h3.609l.906-5.785-.028.18a.836.836 0 0 1 .823-.71h1.715c3.369 0 6.006-1.377 6.777-5.36.023-.119.043-.233.06-.345-.098-.052-.098-.052 0 0 .23-1.473-.002-2.475-.793-3.383Z" fill="#27346A"/><path d="M26.4 13.198a.728.728 0 0 1 .315-.072h4.583c.542 0 1.049.036 1.511.11a6.333 6.333 0 0 1 .923.223c.227.076.44.165.634.27.23-1.473-.002-2.475-.793-3.383-.872-.999-2.445-1.427-4.46-1.427h-5.845a.839.839 0 0 0-.826.71l-2.434 15.536a.504.504 0 0 0 .496.584h3.609l1.88-12.001a.74.74 0 0 1 .407-.55Z" fill="#27346A"/><path d="M34.306 14.073c-.77 3.983-3.408 5.361-6.777 5.361h-1.715a.835.835 0 0 0-.823.71l-1.128 7.195a.441.441 0 0 0 .434.51h3.042a.729.729 0 0 0 .722-.62l.03-.157.573-3.657.037-.202a.738.738 0 0 1 .723-.622h.455c2.947 0 5.254-1.205 5.928-4.69.282-1.456.136-2.672-.608-3.526a2.908 2.908 0 0 0-.833-.646 9.668 9.668 0 0 1-.06.344Z" fill="#2790C3"/><path d="M33.56 13.405a5.556 5.556 0 0 0-.75-.167 9.453 9.453 0 0 0-1.512-.111h-4.582a.732.732 0 0 0-.723.622l-.974 6.215-.028.18a.835.835 0 0 1 .823-.71h1.716c3.368 0 6.006-1.377 6.776-5.36.023-.119.043-.233.06-.345a4.14 4.14 0 0 0-.807-.324" fill="#1F264F"/></g></g><defs><clipPath id="pb"><path fill="#fff" transform="translate(20 8.867)" d="M0 0h16v19H0z"/></clipPath><filter id="pa" x="0" y=".867" width="56" height="38" filterUnits="userSpaceOnUse" color-interpolation-filters="sRGB"><feFlood flood-opacity="0" result="BackgroundImageFix"/><feColorMatrix in="SourceAlpha" values="0 0 0 0 0 0 0 0 0 0 0 0 0 0 0 0 0 0 127 0" result="hardAlpha"/><feOffset dy="1"/><feGaussianBlur stdDeviation="2.5"/><feComposite in2="hardAlpha" operator="out"/><feColorMatrix values="0 0 0 0 0 0 0 0 0 0 0 0 0 0 0 0 0 0 0.15 0"/><feBlend in2="BackgroundImageFix" result="effect1_dropShadow_101_661"/><feBlend in="SourceGraphic" in2="effect1_dropShadow_101_661" result="shape"/></filter></defs></svg><svg fill="none" viewBox="0 0 20 21" id="search" xmlns="http://www.w3.org/2000/svg"><path d="m19.72 18.814-3.709-3.68a9.006 9.006 0 0 0-1.013-12.336 8.99 8.99 0 0 0-12.364.338 9.005 9.005 0 0 0 5.623 15.337 8.99 8.99 0 0 0 6.365-1.95l3.678 3.681a1.001 1.001 0 0 0 1.42 0 1 1 0 0 0 0-1.39Zm-10.704-2.29a6.992 6.992 0 0 1-6.464-4.322 7.006 7.006 0 0 1 1.517-7.63 6.994 6.994 0 0 1 11.942 4.95 7.004 7.004 0 0 1-2.049 4.951 6.993 6.993 0 0 1-4.946 2.05Z" fill="#000"/></svg><svg fill="none" viewBox="0 0 17 17" id="tiktok" xmlns="http://www.w3.org/2000/svg"><path d="M8.54 0a.593.593 0 0 0-.592.593v11.07a1.78 1.78 0 1 1-1.78-1.78.593.593 0 0 0 .594-.592V6.919a.593.593 0 0 0-.593-.593 5.337 5.337 0 1 0 5.337 5.337V7.09a7.675 7.675 0 0 0 4.151 1.212.593.593 0 0 0 .593-.593V5.337a.593.593 0 0 0-.593-.593A4.151 4.151 0 0 1 11.506.593.593.593 0 0 0 10.913 0H8.54Z" fill="#2E2E2E"/></svg><svg fill="none" viewBox="0 0 24 21" id="user" xmlns="http://www.w3.org/2000/svg"><path d="M1.22 20c3.428-4.708 12.51-11.299 21.422 0" stroke="#000" stroke-width="1.5"/><path d="M18.177 7.133a6.383 6.383 0 1 1-12.766 0 6.383 6.383 0 0 1 12.766 0Z" stroke="#000" stroke-width="1.5"/></svg><svg fill="none" viewBox="0 0 56 39" id="visa" xmlns="http://www.w3.org/2000/svg"><g filter="url(#ta)"><path fill="#fff" d="M5 4.867h46v28H5z"/><path d="M25.606 24.351H22.67l1.836-11.283h2.938l-1.837 11.283Zm-5.408-11.283-2.8 7.76-.332-1.67-.988-5.074s-.12-1.016-1.394-1.016h-4.63L10 13.26s1.416.295 3.073 1.29l2.552 9.803h3.06l4.674-11.284h-3.161Zm23.105 11.283H46l-2.352-11.283h-2.361c-1.09 0-1.356.84-1.356.84L35.55 24.352h3.062l.612-1.676h3.735l.344 1.676Zm-3.233-3.99 1.544-4.223.868 4.222H40.07Zm-4.29-4.58.419-2.422s-1.294-.492-2.642-.492c-1.458 0-4.92.637-4.92 3.735 0 2.915 4.063 2.951 4.063 4.482 0 1.531-3.644 1.257-4.847.291l-.437 2.534s1.312.637 3.316.637c2.005 0 5.029-1.038 5.029-3.863 0-2.934-4.1-3.207-4.1-4.482 0-1.276 2.861-1.112 4.118-.42Z" fill="#2566AF"/><path d="m17.066 19.158-.988-5.074s-.12-1.016-1.394-1.016h-4.63l-.054.19s2.225.462 4.36 2.19c2.04 1.651 2.706 3.71 2.706 3.71Z" fill="#E6A540"/></g><defs><filter id="ta" x="0" y=".867" width="56" height="38" filterUnits="userSpaceOnUse" color-interpolation-filters="sRGB"><feFlood flood-opacity="0" result="BackgroundImageFix"/><feColorMatrix in="SourceAlpha" values="0 0 0 0 0 0 0 0 0 0 0 0 0 0 0 0 0 0 127 0" result="hardAlpha"/><feOffset dy="1"/><feGaussianBlur stdDeviation="2.5"/><feComposite in2="hardAlpha" operator="out"/><feColorMatrix values="0 0 0 0 0 0 0 0 0 0 0 0 0 0 0 0 0 0 0.15 0"/><feBlend in2="BackgroundImageFix" result="effect1_dropShadow_101_660"/><feBlend in="SourceGraphic" in2="effect1_dropShadow_101_660" result="shape"/></filter></defs></svg><svg fill="none" viewBox="0 0 20 17" id="youtube" xmlns="http://www.w3.org/2000/svg"><path d="M19.246 5.991a11.513 11.513 0 0 0-.786-4.538c-.378-.577-.904-.966-1.484-1.1a53.206 53.206 0 0 0-7.224-.34 53.263 53.263 0 0 0-7.199.33c-.473.11-.91.392-1.26.813-.776.912-.863 2.473-.95 3.791a67.545 67.545 0 0 0 0 7.122c.026.742.113 1.479.26 2.198.104.555.314 1.068.613 1.494.351.444.8.742 1.286.858 1.86.292 3.735.413 5.61.362 3.02.055 5.67 0 8.803-.308.499-.108.96-.407 1.32-.857.242-.308.423-.684.527-1.099.309-1.206.46-2.468.45-3.736.034-.616.034-4.33.034-4.99ZM7.8 11.641V4.836l5.11 3.418C11.478 9.266 9.588 10.41 7.8 11.64Z" fill="#000"/></svg></svg>